<svg xmlns="http://www.w3.org/2000/svg" xmlns:xlink="http://www.w3.org/1999/xlink" xmlns:ev="http://www.w3.org/2001/xml-events" width="100%" height="100%" viewBox="0 0 853 368" version="1.1" baseProfile="full"><defs><linearGradient id="linear_m1a1bomcmsyeewmi" x1="1.836909530733566e-16" y1="0" x2="0" y2="1"><stop offset="0%" stop-color="#31312f"/><stop offset="100%" stop-color="#1D1D1B"/></linearGradient><linearGradient id="linear_ma1ylri62k2o6ruy" x1="1.836909530733566e-16" y1="0" x2="0" y2="1"><stop offset="0%" stop-color="#ff7800"/><stop offset="100%" stop-color="#ed8b00" stop-opacity="95"/></linearGradient><linearGradient id="linear_w0jtf2vhj9py14i9" x1="1.836909530733566e-16" y1="0" x2="0" y2="1"><stop offset="0%" stop-color="#ffb400"/><stop offset="100%" stop-color="#eda200" stop-opacity="95"/></linearGradient><linearGradient id="linear_1ljzkbk2xsqncdie" x1="1.836909530733566e-16" y1="0" x2="0" y2="1"><stop offset="0%" stop-color="#ffcc00"/><stop offset="100%" stop-color="#edbe00" stop-opacity="95"/></linearGradient><linearGradient id="linear_427gc8n1p2e29rez" x1="1" y1="1.2246063538223773e-16" x2="0" y2="0"><stop offset="0%" stop-color="rgb(255, 71, 94)"/><stop offset="100%" stop-color="rgb(255, 18, 0)" stop-opacity="0.5"/></linearGradient></defs><g/><g transform="translate(0, 0)"><path d="M 0 0 L 856 0 L 856 368 L 0 368 Z" fill-opacity="0" stroke="none" fill="#737577" id="js-extendingtimelineblock" data-resumeblock="extendingtimelineblock" class="js-editable-block resume-svg-block-layout block-extendingtimelineblock resume-white-layout" stroke-width="1"/><rect x="15" y="174" width="800" height="20" rx="0" ry="0" fill="url(#linear_m1a1bomcmsyeewmi)" stroke="#868686" stroke-width="0.4048" stroke-miterlimit="10"/><rect x="15.5" y="175" width="799" height="0.1" rx="0" ry="0" stroke="#868686" stroke-width="0.5" fill="none"/><rect x="15.5" y="193" width="799" height="0.1" rx="0" ry="0" stroke="#868686" stroke-width="0.5" fill="none"/><path d="M 815 174 L 823 184 L 815 194" stroke="none" fill="url(#linear_m1a1bomcmsyeewmi)" stroke-width="1"/><path d="M 815 175 L 815 193" stroke="#1D1D1B" stroke-width="1" fill="none"/><path d="M130,-230c-25,1,-55,3,-54,-22c0,-32,45,-20,75,-22c12,0,22,10,22,22l0,194c30,1,71,-9,72,22c0,12,-10,22,-22,22l-144,0c-12,0,-21,-10,-21,-22c0,-31,43,-20,72,-22l0,-172zM363.6,-230c-25,1,-55,3,-54,-22c0,-32,45,-20,75,-22c12,0,22,10,22,22l0,194c30,1,71,-9,72,22c0,12,-10,22,-22,22l-144,0c-12,0,-21,-10,-21,-22c0,-31,43,-20,72,-22l0,-172z" fill="#fff" stroke="none" stroke-width="45" transform="scale(0.022222222222222223, 0.022222222222222223) translate(675, 8235) translate(3.8190800000000005, 158) translate(4244.7, 0)"/><rect x="15" y="174" width="0.1" height="20" rx="0" ry="0" stroke-width="0.1" stroke="#b1b1b1" fill="none"/><path d="M130,-230c-25,1,-55,3,-54,-22c0,-32,45,-20,75,-22c12,0,22,10,22,22l0,194c30,1,71,-9,72,22c0,12,-10,22,-22,22l-144,0c-12,0,-21,-10,-21,-22c0,-31,43,-20,72,-22l0,-172zM507.6,-14l-191,0c-12,0,-22,-10,-22,-22c0,-72,74,-106,129,-120c27,-7,54,-14,54,-38c0,-50,-106,-40,-141,-14c-23,17,-45,-20,-23,-36c65,-46,210,-39,208,50c-1,42,-25,62,-81,77c-54,15,-85,36,-97,59l164,0c12,0,21,10,21,22c0,12,-9,22,-21,22z" fill="#fff" stroke="none" stroke-width="45" transform="scale(0.022222222222222223, 0.022222222222222223) translate(9675, 8235) translate(3.8190800000000005, 158) translate(4221.2, 0)"/><rect x="215" y="174" width="0.1" height="20" rx="0" ry="0" stroke-width="0.1" stroke="#b1b1b1" fill="none"/><path d="M130,-230c-25,1,-55,3,-54,-22c0,-32,45,-20,75,-22c12,0,22,10,22,22l0,194c30,1,71,-9,72,22c0,12,-10,22,-22,22l-144,0c-12,0,-21,-10,-21,-22c0,-31,43,-20,72,-22l0,-172zM398.6,-122c-23,0,-45,-1,-45,-22c0,-20,20,-22,42,-22c36,0,64,-8,64,-32c0,-44,-105,-34,-136,-19c-10,5,-25,0,-27,-13c-7,-40,63,-41,97,-44c94,-8,145,80,81,130c64,49,13,130,-81,130c-27,0,-61,-8,-84,-17c-12,-5,-17,-15,-13,-27c4,-13,16,-18,27,-13c32,15,135,25,136,-19c0,-23,-26,-32,-61,-32z" fill="#fff" stroke="none" stroke-width="45" transform="scale(0.022222222222222223, 0.022222222222222223) translate(18675, 8235) translate(3.8190800000000005, 158) translate(4249.2, 0)"/><rect x="415" y="174" width="0.1" height="20" rx="0" ry="0" stroke-width="0.1" stroke="#b1b1b1" fill="none"/><path d="M130,-230c-25,1,-55,3,-54,-22c0,-32,45,-20,75,-22c12,0,22,10,22,22l0,194c30,1,71,-9,72,22c0,12,-10,22,-22,22l-144,0c-12,0,-21,-10,-21,-22c0,-31,43,-20,72,-22l0,-172zM309.6,-68c-18,1,-29,-24,-16,-37l162,-162c12,-14,37,-5,37,15l0,140c25,-1,54,-3,54,22c0,25,-29,23,-54,22c0,25,4,54,-21,54c-24,0,-23,-29,-22,-54l-140,0zM361.6,-112l88,0l0,-88z" fill="#fff" stroke="none" stroke-width="45" transform="scale(0.022222222222222223, 0.022222222222222223) translate(27675, 8235) translate(3.8190800000000005, 158) translate(4211.7, 0)"/><rect x="615" y="174" width="0.1" height="20" rx="0" ry="0" stroke-width="0.1" stroke="#b1b1b1" fill="none"/><g data-event_id="work_41691222" class="timeline_event"><path d="M 766 174 L 756 149 L 159.33333333333326 149 L 149.33333333333326 174 z" fill="url(#linear_1ljzkbk2xsqncdie)" stroke="#fff" stroke-width="0.3"/><rect x="650.8333333333333" y="124" width="0.5" height="30.299999999999994" rx="0" ry="0" stroke="none" fill="#000" stroke-width="1"/><circle cx="651.3333333333333" cy="154.29999999999998" r="1.7" fill="#000" stroke-width="1" stroke="#000000"/><rect x="583.5944444444444" y="124" width="73.73888888888882" height="19.344375638539653" rx="0" ry="0" fill="#000" opacity="0" stroke="none" stroke-width="1"/><path d="M162,-36l0,-194c-38,-5,-108,17,-108,-22c0,-12,10,-22,22,-22l216,0c12,0,21,10,21,22c0,39,-71,16,-108,22l0,194c0,12,-9,22,-21,22c-12,0,-22,-10,-22,-22zM366.6,-36l0,-216c0,-12,10,-22,22,-22l180,0c12,0,22,10,22,22c0,12,-10,22,-22,22l-158,0l0,64l122,0c12,0,22,10,22,22c0,12,-10,22,-22,22l-122,0l0,64l158,0c12,0,22,10,22,22c0,12,-10,22,-22,22l-180,0c-12,0,-22,-10,-22,-22zM636.2,-36c37,-81,86,-150,127,-227c7,-14,31,-14,38,0l125,217c6,15,-4,34,-19,32c-26,-3,-30,-37,-44,-54l-162,0c-14,17,-18,48,-43,54c-12,0,-22,-10,-22,-22zM782.2,-209l-56,97l112,0zM1233.8000000000002,-36l0,-164l-89,89c-7,9,-22,8,-30,0l-89,-89l0,164c0,12,-10,22,-22,22c-12,0,-22,-10,-22,-22l0,-216c-1,-19,24,-28,37,-15l111,110l111,-110c12,-14,38,-4,37,15l0,216c0,12,-10,22,-22,22c-12,0,-22,-10,-22,-22zM1457,-36l0,-216c0,-12,10,-22,22,-22c12,0,22,10,22,22l0,194l158,0c12,0,22,10,22,22c0,12,-10,22,-22,22l-180,0c-12,0,-22,-10,-22,-22zM1733.6,-36l0,-216c0,-12,10,-22,22,-22l180,0c12,0,22,10,22,22c0,12,-10,22,-22,22l-158,0l0,64l122,0c12,0,22,10,22,22c0,12,-10,22,-22,22l-122,0l0,64l158,0c12,0,22,10,22,22c0,12,-10,22,-22,22l-180,0c-12,0,-22,-10,-22,-22zM2003.1999999999998,-36c37,-81,86,-150,127,-227c7,-14,31,-14,38,0l125,217c6,15,-4,34,-19,32c-26,-3,-30,-37,-44,-54l-162,0c-14,17,-18,48,-43,54c-12,0,-22,-10,-22,-22zM2149.2,-209l-56,97l112,0zM2348.7999999999997,-36l0,-216c6,-39,74,-22,114,-22c71,0,128,59,128,130c0,72,-58,130,-130,130c-39,0,-112,18,-112,-22zM2546.7999999999997,-144c0,-48,-38,-86,-86,-86l-68,0l0,172l68,0c48,0,86,-38,86,-86z" fill="#202123" stroke="none" stroke-width="51.42857142857143" transform="scale(0.019444444444444445, 0.019444444444444445) translate(30437.91428571428, 7188.855373562448) translate(3.81908, 158)"/><path d="M68,-36l0,-216c0,-12,10,-22,22,-22l110,0c46,1,83,39,83,85c0,37,-24,68,-56,80l58,58c14,12,4,38,-15,37c-6,0,-11,-3,-15,-7l-84,-83l-59,0c-4,34,13,88,-22,90c-12,0,-22,-10,-22,-22zM239,-189c0,-55,-74,-39,-127,-41l0,82c53,-2,127,14,127,-41zM351.6,-36l0,-216c0,-12,10,-22,22,-22l180,0c12,0,22,10,22,22c0,12,-10,22,-22,22l-158,0l0,64l122,0c12,0,22,10,22,22c0,12,-10,22,-22,22l-122,0l0,64l158,0c12,0,22,10,22,22c0,12,-10,22,-22,22l-180,0c-12,0,-22,-10,-22,-22zM657.2,-71c38,16,148,27,148,-19c0,-24,-30,-32,-67,-32c-64,0,-110,-25,-110,-76c0,-77,127,-92,194,-59c12,5,17,16,13,27c-5,14,-16,16,-27,13c-31,-16,-136,-25,-137,19c0,24,30,32,67,32c64,0,110,25,110,76c0,80,-134,92,-205,60c-11,-4,-17,-17,-13,-28c5,-12,16,-17,27,-13zM1103.8000000000002,-252c0,-12,9,-22,21,-22c12,0,22,10,22,22l0,117c0,67,-54,121,-121,121c-67,0,-120,-54,-120,-121l0,-117c0,-12,9,-22,21,-22c12,0,22,10,22,22l0,119c1,42,35,75,77,75c43,0,78,-34,78,-77l0,-117zM1462.4,-36l0,-164l-89,89c-7,9,-22,8,-30,0l-89,-89l0,164c0,12,-10,22,-22,22c-12,0,-22,-10,-22,-22l0,-216c-1,-19,24,-28,37,-15l111,110l111,-110c12,-14,38,-4,37,15l0,216c0,12,-10,22,-22,22c-12,0,-22,-10,-22,-22zM1769,-252c0,-12,9,-22,21,-22c12,0,22,10,22,22l0,117c0,67,-54,121,-121,121c-67,0,-120,-54,-120,-121l0,-117c0,-12,9,-22,21,-22c12,0,22,10,22,22l0,119c1,42,35,75,77,75c43,0,78,-34,78,-77l0,-117zM1875.6,-36l0,-216c0,-12,10,-22,22,-22l110,0c46,1,83,39,83,85c0,47,-38,85,-85,85l-86,0c-4,34,13,88,-22,90c-12,0,-22,-10,-22,-22zM2046.6,-189c0,-55,-74,-39,-127,-41l0,82c53,-2,127,14,127,-41z" fill="#202123" stroke="none" stroke-width="36" transform="scale(0.027777777777777776, 0.027777777777777776) translate(21009.4, 4630) translate(3.8190799999999996, 158)"/><circle cx="651.3333333333333" cy="130" r="6" fill="url(#linear_1ljzkbk2xsqncdie)" stroke="none" class="event-marker" data-color="#ffcc00" stroke-width="1"/><path d="M159,-270c-71,0,-98,53,-98,123c0,70,27,123,98,123c68,0,98,-48,98,-123c0,-72,-29,-123,-98,-123zM159,9c-92,0,-140,-57,-140,-156c0,-97,47,-156,140,-156c91,0,141,57,140,156c0,98,-48,156,-140,156z" fill="#fff" stroke="none" stroke-width="50.55555555555556" transform="scale(0.01978021978021978, 0.01978021978021978) translate(32625.185185185182, 6424.88888888889) translate(10, 128.5) translate(163.333333333336, 0) translate(-50.55555555555556, 0) translate(0, 147.33333333333317)"/></g><g data-event_id="achievement_91465" class="timeline_event" transform="translate(0,95)"><path d="M 749 10 L 749 26 L 769 26 L 762 18 L 769 10 Z" stroke-opacity="0" fill="url(#linear_427gc8n1p2e29rez)" class="event-marker" data-color="#f00" stroke-width="1" stroke="#000000"/><path d="M318,-28l-67,-166l-68,166c-6,18,-33,18,-40,0l-89,-224c-1,-24,33,-29,42,-8l67,166l67,-166c6,-18,34,-18,41,0l67,166l67,-166c7,-21,43,-17,42,8c-26,78,-60,148,-89,224c-6,18,-33,18,-40,0zM517.7,-36l0,-216c0,-12,10,-22,22,-22l180,0c12,0,22,10,22,22c0,12,-10,22,-22,22l-158,0l0,64l122,0c12,0,22,10,22,22c0,12,-10,22,-22,22l-122,0l0,64l158,0c12,0,22,10,22,22c0,12,-10,22,-22,22l-180,0c-12,0,-22,-10,-22,-22zM818.4,-36l0,-216c6,-39,74,-22,114,-22c71,0,128,59,128,130c0,72,-58,130,-130,130c-39,0,-112,18,-112,-22zM1016.4,-144c0,-48,-38,-86,-86,-86l-68,0l0,172l68,0c48,0,86,-38,86,-86zM1134.1,-36l0,-216c6,-39,74,-22,114,-22c71,0,128,59,128,130c0,72,-58,130,-130,130c-39,0,-112,18,-112,-22zM1332.1,-144c0,-48,-38,-86,-86,-86l-68,0l0,172l68,0c48,0,86,-38,86,-86zM1463.8,-36l0,-216c0,-12,10,-22,22,-22c12,0,22,10,22,22l0,216c0,12,-10,22,-22,22c-12,0,-22,-10,-22,-22zM1592.5,-36l0,-216c-1,-19,24,-28,37,-15l179,179l0,-164c0,-12,10,-22,22,-22c12,0,22,10,22,22l0,216c1,19,-24,28,-37,15l-179,-179l0,164c0,12,-10,22,-22,22c-12,0,-22,-10,-22,-22zM2133.2,-199c-27,-7,-44,-31,-77,-31c-48,0,-86,38,-86,86c0,71,88,112,141,67l0,-41c-30,-1,-72,9,-72,-22c0,-35,60,-21,94,-21c35,0,17,60,21,93c-11,39,-59,54,-98,54c-72,0,-129,-58,-129,-130c0,-72,57,-130,129,-130c39,0,86,17,98,54c0,12,-9,21,-21,21z" fill="#fa0a03" stroke="none" stroke-width="51.42857142857143" transform="scale(0.019444444444444445, 0.019444444444444445) translate(39754.28571428571, 925.7142857142857) translate(3.81908, 158)"/><rect x="749" y="10" width="64.75944444444444" height="16" rx="0" ry="0" fill="#000" opacity="0" stroke="none" stroke-width="1"/><circle cx="749" cy="174.5" r="10" fill="none" stroke="#dcdee2" stroke-width="5" stroke-opacity="0.6" opacity="0"/></g><rect x="15" y="171" width="815" height="3" rx="0" ry="0" fill="#ffffff" fill-opacity="0.25" stroke="none" stroke-width="1"/><rect x="15" y="194" width="815" height="3" rx="0" ry="0" fill="#ffffff" fill-opacity="0.25" stroke="none" stroke-width="1"/><g><circle cx="149.33333333333326" cy="174" r="3.2" fill="url(#linear_1ljzkbk2xsqncdie)" stroke="none" stroke-width="1"/><circle cx="766" cy="174" r="3.2" fill="url(#linear_1ljzkbk2xsqncdie)" stroke="none" stroke-width="1"/></g><rect x="748.5" y="105" width="1" height="70" rx="0" ry="0" stroke="none" fill="#f00" stroke-width="1"/></g></svg>
