<svg xmlns="http://www.w3.org/2000/svg" xmlns:xlink="http://www.w3.org/1999/xlink" xmlns:ev="http://www.w3.org/2001/xml-events" width="100%" height="100%" viewBox="0 0 853 368" version="1.1" baseProfile="full"><defs><linearGradient id="linear_b6qietx7ckvjkyb9" x1="1.836909530733566e-16" y1="0" x2="0" y2="1"><stop offset="0%" stop-color="#31312f"/><stop offset="100%" stop-color="#1D1D1B"/></linearGradient><linearGradient id="linear_uum7if4qbg5pnwmi" x1="1.836909530733566e-16" y1="0" x2="0" y2="1"><stop offset="0%" stop-color="#ff7800"/><stop offset="100%" stop-color="#ed8b00" stop-opacity="95"/></linearGradient><linearGradient id="linear_fkvad5vm2x5yiudi" x1="1.836909530733566e-16" y1="0" x2="0" y2="1"><stop offset="0%" stop-color="#ffcc00"/><stop offset="100%" stop-color="#edbe00" stop-opacity="95"/></linearGradient><linearGradient id="linear_0jppji39grpb928z" x1="1" y1="1.2246063538223773e-16" x2="0" y2="0"><stop offset="0%" stop-color="rgb(255, 71, 94)"/><stop offset="100%" stop-color="rgb(255, 18, 0)" stop-opacity="0.5"/></linearGradient></defs><g/><g transform="translate(0, 0)"><rect x="15" y="174" width="800" height="20" rx="0" ry="0" fill="url(#linear_b6qietx7ckvjkyb9)" stroke="#868686" stroke-width="0.4048" stroke-miterlimit="10"/><rect x="15.5" y="175" width="799" height="0.1" rx="0" ry="0" stroke="#868686" stroke-width="0.5" fill="none"/><rect x="15.5" y="193" width="799" height="0.1" rx="0" ry="0" stroke="#868686" stroke-width="0.5" fill="none"/><path d="M 815 174 L 823 184 L 815 194" stroke="none" fill="url(#linear_b6qietx7ckvjkyb9)" stroke-width="1"/><path d="M 815 175 L 815 193" stroke="#1D1D1B" stroke-width="1" fill="none"/><path d="M130,-230c-25,1,-55,3,-54,-22c0,-32,45,-20,75,-22c12,0,22,10,22,22l0,194c30,1,71,-9,72,22c0,12,-10,22,-22,22l-144,0c-12,0,-21,-10,-21,-22c0,-31,43,-20,72,-22l0,-172zM363.6,-230c-25,1,-55,3,-54,-22c0,-32,45,-20,75,-22c12,0,22,10,22,22l0,194c30,1,71,-9,72,22c0,12,-10,22,-22,22l-144,0c-12,0,-21,-10,-21,-22c0,-31,43,-20,72,-22l0,-172z" fill="#fff" stroke="none" stroke-width="45" transform="scale(0.022222222222222223, 0.022222222222222223) translate(675, 8235) translate(3.8190800000000005, 158) translate(4244.7, 0)"/><rect x="15" y="174" width="0.1" height="20" rx="0" ry="0" stroke-width="0.1" stroke="#b1b1b1" fill="none"/><path d="M130,-230c-25,1,-55,3,-54,-22c0,-32,45,-20,75,-22c12,0,22,10,22,22l0,194c30,1,71,-9,72,22c0,12,-10,22,-22,22l-144,0c-12,0,-21,-10,-21,-22c0,-31,43,-20,72,-22l0,-172zM507.6,-14l-191,0c-12,0,-22,-10,-22,-22c0,-72,74,-106,129,-120c27,-7,54,-14,54,-38c0,-50,-106,-40,-141,-14c-23,17,-45,-20,-23,-36c65,-46,210,-39,208,50c-1,42,-25,62,-81,77c-54,15,-85,36,-97,59l164,0c12,0,21,10,21,22c0,12,-9,22,-21,22z" fill="#fff" stroke="none" stroke-width="45" transform="scale(0.022222222222222223, 0.022222222222222223) translate(9675, 8235) translate(3.8190800000000005, 158) translate(4221.2, 0)"/><rect x="215" y="174" width="0.1" height="20" rx="0" ry="0" stroke-width="0.1" stroke="#b1b1b1" fill="none"/><path d="M130,-230c-25,1,-55,3,-54,-22c0,-32,45,-20,75,-22c12,0,22,10,22,22l0,194c30,1,71,-9,72,22c0,12,-10,22,-22,22l-144,0c-12,0,-21,-10,-21,-22c0,-31,43,-20,72,-22l0,-172zM398.6,-122c-23,0,-45,-1,-45,-22c0,-20,20,-22,42,-22c36,0,64,-8,64,-32c0,-44,-105,-34,-136,-19c-10,5,-25,0,-27,-13c-7,-40,63,-41,97,-44c94,-8,145,80,81,130c64,49,13,130,-81,130c-27,0,-61,-8,-84,-17c-12,-5,-17,-15,-13,-27c4,-13,16,-18,27,-13c32,15,135,25,136,-19c0,-23,-26,-32,-61,-32z" fill="#fff" stroke="none" stroke-width="45" transform="scale(0.022222222222222223, 0.022222222222222223) translate(18675, 8235) translate(3.8190800000000005, 158) translate(4249.2, 0)"/><rect x="415" y="174" width="0.1" height="20" rx="0" ry="0" stroke-width="0.1" stroke="#b1b1b1" fill="none"/><path d="M130,-230c-25,1,-55,3,-54,-22c0,-32,45,-20,75,-22c12,0,22,10,22,22l0,194c30,1,71,-9,72,22c0,12,-10,22,-22,22l-144,0c-12,0,-21,-10,-21,-22c0,-31,43,-20,72,-22l0,-172zM309.6,-68c-18,1,-29,-24,-16,-37l162,-162c12,-14,37,-5,37,15l0,140c25,-1,54,-3,54,22c0,25,-29,23,-54,22c0,25,4,54,-21,54c-24,0,-23,-29,-22,-54l-140,0zM361.6,-112l88,0l0,-88z" fill="#fff" stroke="none" stroke-width="45" transform="scale(0.022222222222222223, 0.022222222222222223) translate(27675, 8235) translate(3.8190800000000005, 158) translate(4211.7, 0)"/><rect x="615" y="174" width="0.1" height="20" rx="0" ry="0" stroke-width="0.1" stroke="#b1b1b1" fill="none"/><g data-event_id="work_41691222" class="timeline_event"><path d="M 766 174 L 756 149 L 159.33333333333326 149 L 149.33333333333326 174 z" fill="url(#linear_fkvad5vm2x5yiudi)" stroke="#fff" stroke-width="0.3"/><rect x="700.8333333333333" y="124" width="0.5" height="30.299999999999994" rx="0" ry="0" stroke="none" fill="#000" stroke-width="1"/><circle cx="701.3333333333333" cy="154.29999999999998" r="1.7" fill="#000" stroke-width="1" stroke="#000000"/><rect x="633.5944444444444" y="124" width="73.73888888888882" height="19.344375638539653" rx="0" ry="0" fill="#000" opacity="0" stroke="none" stroke-width="1"/><path d="M162,-36l0,-194c-38,-5,-108,17,-108,-22c0,-12,10,-22,22,-22l216,0c12,0,21,10,21,22c0,39,-71,16,-108,22l0,194c0,12,-9,22,-21,22c-12,0,-22,-10,-22,-22zM366.6,-36l0,-216c0,-12,10,-22,22,-22l180,0c12,0,22,10,22,22c0,12,-10,22,-22,22l-158,0l0,64l122,0c12,0,22,10,22,22c0,12,-10,22,-22,22l-122,0l0,64l158,0c12,0,22,10,22,22c0,12,-10,22,-22,22l-180,0c-12,0,-22,-10,-22,-22zM636.2,-36c37,-81,86,-150,127,-227c7,-14,31,-14,38,0l125,217c6,15,-4,34,-19,32c-26,-3,-30,-37,-44,-54l-162,0c-14,17,-18,48,-43,54c-12,0,-22,-10,-22,-22zM782.2,-209l-56,97l112,0zM1233.8000000000002,-36l0,-164l-89,89c-7,9,-22,8,-30,0l-89,-89l0,164c0,12,-10,22,-22,22c-12,0,-22,-10,-22,-22l0,-216c-1,-19,24,-28,37,-15l111,110l111,-110c12,-14,38,-4,37,15l0,216c0,12,-10,22,-22,22c-12,0,-22,-10,-22,-22zM1457,-36l0,-216c0,-12,10,-22,22,-22c12,0,22,10,22,22l0,194l158,0c12,0,22,10,22,22c0,12,-10,22,-22,22l-180,0c-12,0,-22,-10,-22,-22zM1733.6,-36l0,-216c0,-12,10,-22,22,-22l180,0c12,0,22,10,22,22c0,12,-10,22,-22,22l-158,0l0,64l122,0c12,0,22,10,22,22c0,12,-10,22,-22,22l-122,0l0,64l158,0c12,0,22,10,22,22c0,12,-10,22,-22,22l-180,0c-12,0,-22,-10,-22,-22zM2003.1999999999998,-36c37,-81,86,-150,127,-227c7,-14,31,-14,38,0l125,217c6,15,-4,34,-19,32c-26,-3,-30,-37,-44,-54l-162,0c-14,17,-18,48,-43,54c-12,0,-22,-10,-22,-22zM2149.2,-209l-56,97l112,0zM2348.7999999999997,-36l0,-216c6,-39,74,-22,114,-22c71,0,128,59,128,130c0,72,-58,130,-130,130c-39,0,-112,18,-112,-22zM2546.7999999999997,-144c0,-48,-38,-86,-86,-86l-68,0l0,172l68,0c48,0,86,-38,86,-86z" fill="#202123" stroke="none" stroke-width="51.42857142857143" transform="scale(0.019444444444444445, 0.019444444444444445) translate(33009.34285714285, 7188.855373562448) translate(3.81908, 158)"/><path d="M68,-36l0,-216c0,-12,10,-22,22,-22l110,0c46,1,83,39,83,85c0,37,-24,68,-56,80l58,58c14,12,4,38,-15,37c-6,0,-11,-3,-15,-7l-84,-83l-59,0c-4,34,13,88,-22,90c-12,0,-22,-10,-22,-22zM239,-189c0,-55,-74,-39,-127,-41l0,82c53,-2,127,14,127,-41zM351.6,-36l0,-216c0,-12,10,-22,22,-22l180,0c12,0,22,10,22,22c0,12,-10,22,-22,22l-158,0l0,64l122,0c12,0,22,10,22,22c0,12,-10,22,-22,22l-122,0l0,64l158,0c12,0,22,10,22,22c0,12,-10,22,-22,22l-180,0c-12,0,-22,-10,-22,-22zM657.2,-71c38,16,148,27,148,-19c0,-24,-30,-32,-67,-32c-64,0,-110,-25,-110,-76c0,-77,127,-92,194,-59c12,5,17,16,13,27c-5,14,-16,16,-27,13c-31,-16,-136,-25,-137,19c0,24,30,32,67,32c64,0,110,25,110,76c0,80,-134,92,-205,60c-11,-4,-17,-17,-13,-28c5,-12,16,-17,27,-13zM1103.8000000000002,-252c0,-12,9,-22,21,-22c12,0,22,10,22,22l0,117c0,67,-54,121,-121,121c-67,0,-120,-54,-120,-121l0,-117c0,-12,9,-22,21,-22c12,0,22,10,22,22l0,119c1,42,35,75,77,75c43,0,78,-34,78,-77l0,-117zM1462.4,-36l0,-164l-89,89c-7,9,-22,8,-30,0l-89,-89l0,164c0,12,-10,22,-22,22c-12,0,-22,-10,-22,-22l0,-216c-1,-19,24,-28,37,-15l111,110l111,-110c12,-14,38,-4,37,15l0,216c0,12,-10,22,-22,22c-12,0,-22,-10,-22,-22zM1769,-252c0,-12,9,-22,21,-22c12,0,22,10,22,22l0,117c0,67,-54,121,-121,121c-67,0,-120,-54,-120,-121l0,-117c0,-12,9,-22,21,-22c12,0,22,10,22,22l0,119c1,42,35,75,77,75c43,0,78,-34,78,-77l0,-117zM1875.6,-36l0,-216c0,-12,10,-22,22,-22l110,0c46,1,83,39,83,85c0,47,-38,85,-85,85l-86,0c-4,34,13,88,-22,90c-12,0,-22,-10,-22,-22zM2046.6,-189c0,-55,-74,-39,-127,-41l0,82c53,-2,127,14,127,-41z" fill="#202123" stroke="none" stroke-width="36" transform="scale(0.027777777777777776, 0.027777777777777776) translate(22809.4, 4630) translate(3.8190799999999996, 158)"/><circle cx="701.3333333333333" cy="130" r="6" fill="url(#linear_fkvad5vm2x5yiudi)" stroke="none" class="event-marker" data-color="#ffcc00" stroke-width="1"/><path d="M159,-270c-71,0,-98,53,-98,123c0,70,27,123,98,123c68,0,98,-48,98,-123c0,-72,-29,-123,-98,-123zM159,9c-92,0,-140,-57,-140,-156c0,-97,47,-156,140,-156c91,0,141,57,140,156c0,98,-48,156,-140,156z" fill="#fff" stroke="none" stroke-width="50.55555555555556" transform="scale(0.01978021978021978, 0.01978021978021978) translate(35152.96296296296, 6424.88888888889) translate(10, 128.5) translate(163.333333333336, 0) translate(-50.55555555555556, 0) translate(0, 147.33333333333317)"/></g><g data-event_id="achievement_91475" class="timeline_event"><path d="M 749 10 L 749 26 L 769 26 L 762 18 L 769 10 Z" stroke-opacity="0" fill="url(#linear_0jppji39grpb928z)" class="event-marker" data-color="#f00" stroke-width="1" stroke="#000000"/><path d="M162,-36l0,-194c-38,-5,-108,17,-108,-22c0,-12,10,-22,22,-22l216,0c12,0,21,10,21,22c0,39,-71,16,-108,22l0,194c0,12,-9,22,-21,22c-12,0,-22,-10,-22,-22zM383.7,-36l0,-216c0,-12,10,-22,22,-22c12,0,22,10,22,22l0,216c0,12,-10,22,-22,22c-12,0,-22,-10,-22,-22zM764.4,-36l0,-164l-89,89c-7,9,-22,8,-30,0l-89,-89l0,164c0,12,-10,22,-22,22c-12,0,-22,-10,-22,-22l0,-216c-1,-19,24,-28,37,-15l111,110l111,-110c12,-14,38,-4,37,15l0,216c0,12,-10,22,-22,22c-12,0,-22,-10,-22,-22zM893.0999999999999,-36l0,-216c0,-12,10,-22,22,-22l180,0c12,0,22,10,22,22c0,12,-10,22,-22,22l-158,0l0,64l122,0c12,0,22,10,22,22c0,12,-10,22,-22,22l-122,0l0,64l158,0c12,0,22,10,22,22c0,12,-10,22,-22,22l-180,0c-12,0,-22,-10,-22,-22zM1193.8,-36l0,-216c0,-12,10,-22,22,-22c12,0,22,10,22,22l0,194l158,0c12,0,22,10,22,22c0,12,-10,22,-22,22l-180,0c-12,0,-22,-10,-22,-22zM1487.5,-36l0,-216c0,-12,10,-22,22,-22c12,0,22,10,22,22l0,216c0,12,-10,22,-22,22c-12,0,-22,-10,-22,-22zM1616.2,-36l0,-216c-1,-19,24,-28,37,-15l179,179l0,-164c0,-12,10,-22,22,-22c12,0,22,10,22,22l0,216c1,19,-24,28,-37,15l-179,-179l0,164c0,12,-10,22,-22,22c-12,0,-22,-10,-22,-22zM1960.9,-36l0,-216c0,-12,10,-22,22,-22l180,0c12,0,22,10,22,22c0,12,-10,22,-22,22l-158,0l0,64l122,0c12,0,22,10,22,22c0,12,-10,22,-22,22l-122,0l0,64l158,0c12,0,22,10,22,22c0,12,-10,22,-22,22l-180,0c-12,0,-22,-10,-22,-22zM2398.2999999999997,-68c-18,1,-29,-24,-16,-37l162,-162c12,-14,37,-5,37,15l0,140c25,-1,54,-3,54,22c0,25,-29,23,-54,22c0,25,4,54,-21,54c-24,0,-23,-29,-22,-54l-140,0zM2450.2999999999997,-112l88,0l0,-88zM2705.9999999999995,-36c0,-12,10,-22,22,-22c12,0,22,10,22,22c0,12,-10,22,-22,22c-12,0,-22,-10,-22,-22zM2867.6999999999994,-144c0,48,38,86,86,86c48,0,87,-38,87,-86c0,-48,-39,-86,-87,-86c-48,0,-86,38,-86,86zM2824.6999999999994,-144c0,-72,57,-130,129,-130c72,0,130,58,130,130c0,72,-58,130,-130,130c-72,0,-129,-58,-129,-130z" fill="#fa0a03" stroke="none" stroke-width="51.42857142857143" transform="scale(0.019444444444444445, 0.019444444444444445) translate(39754.28571428571, 925.7142857142857) translate(3.81908, 158)"/><rect x="749" y="10" width="82.83305555555555" height="16" rx="0" ry="0" fill="#000" opacity="0" stroke="none" stroke-width="1"/><circle cx="749" cy="174.5" r="10" fill="none" stroke="#dcdee2" stroke-width="5" stroke-opacity="0.6" opacity="0"/></g><g data-event_id="achievement_91465" class="timeline_event"><path d="M 749 35 L 749 51 L 769 51 L 762 43 L 769 35 Z" stroke-opacity="0" fill="url(#linear_0jppji39grpb928z)" class="event-marker" data-color="#f00" stroke-width="1" stroke="#000000"/><path d="M318,-28l-67,-166l-68,166c-6,18,-33,18,-40,0l-89,-224c-1,-24,33,-29,42,-8l67,166l67,-166c6,-18,34,-18,41,0l67,166l67,-166c7,-21,43,-17,42,8c-26,78,-60,148,-89,224c-6,18,-33,18,-40,0zM517.7,-36l0,-216c0,-12,10,-22,22,-22l180,0c12,0,22,10,22,22c0,12,-10,22,-22,22l-158,0l0,64l122,0c12,0,22,10,22,22c0,12,-10,22,-22,22l-122,0l0,64l158,0c12,0,22,10,22,22c0,12,-10,22,-22,22l-180,0c-12,0,-22,-10,-22,-22zM818.4,-36l0,-216c6,-39,74,-22,114,-22c71,0,128,59,128,130c0,72,-58,130,-130,130c-39,0,-112,18,-112,-22zM1016.4,-144c0,-48,-38,-86,-86,-86l-68,0l0,172l68,0c48,0,86,-38,86,-86zM1134.1,-36l0,-216c6,-39,74,-22,114,-22c71,0,128,59,128,130c0,72,-58,130,-130,130c-39,0,-112,18,-112,-22zM1332.1,-144c0,-48,-38,-86,-86,-86l-68,0l0,172l68,0c48,0,86,-38,86,-86zM1463.8,-36l0,-216c0,-12,10,-22,22,-22c12,0,22,10,22,22l0,216c0,12,-10,22,-22,22c-12,0,-22,-10,-22,-22zM1592.5,-36l0,-216c-1,-19,24,-28,37,-15l179,179l0,-164c0,-12,10,-22,22,-22c12,0,22,10,22,22l0,216c1,19,-24,28,-37,15l-179,-179l0,164c0,12,-10,22,-22,22c-12,0,-22,-10,-22,-22zM2133.2,-199c-27,-7,-44,-31,-77,-31c-48,0,-86,38,-86,86c0,71,88,112,141,67l0,-41c-30,-1,-72,9,-72,-22c0,-35,60,-21,94,-21c35,0,17,60,21,93c-11,39,-59,54,-98,54c-72,0,-129,-58,-129,-130c0,-72,57,-130,129,-130c39,0,86,17,98,54c0,12,-9,21,-21,21z" fill="#fa0a03" stroke="none" stroke-width="51.42857142857143" transform="scale(0.019444444444444445, 0.019444444444444445) translate(39754.28571428571, 2211.4285714285716) translate(3.81908, 158)"/><rect x="749" y="35" width="64.75944444444444" height="16" rx="0" ry="0" fill="#000" opacity="0" stroke="none" stroke-width="1"/><circle cx="749" cy="174.5" r="10" fill="none" stroke="#dcdee2" stroke-width="5" stroke-opacity="0.6" opacity="0"/></g><g data-event_id="achievement_91473" class="timeline_event" transform="translate(0, 70)"><path d="M 609 10 L 609 26 L 629 26 L 622 18 L 629 10 Z" stroke-opacity="0" fill="url(#linear_0jppji39grpb928z)" class="event-marker" data-color="#f00" stroke-width="1" stroke="#000000"/><path d="M68,-36l0,-216c0,-12,10,-22,22,-22l110,0c46,1,83,39,83,85c0,47,-38,85,-85,85l-86,0c-4,34,13,88,-22,90c-12,0,-22,-10,-22,-22zM239,-189c0,-55,-74,-39,-127,-41l0,82c53,-2,127,14,127,-41zM554.7,-252c0,-12,9,-22,21,-22c12,0,22,10,22,22l0,117c0,67,-54,121,-121,121c-67,0,-120,-54,-120,-121l0,-117c0,-12,9,-22,21,-22c12,0,22,10,22,22l0,119c1,42,35,75,77,75c43,0,78,-34,78,-77l0,-117zM874.4,-199c-27,-7,-44,-31,-77,-31c-48,0,-86,38,-86,86c0,71,88,112,141,67l0,-41c-30,-1,-72,9,-72,-22c0,-35,60,-21,94,-21c35,0,17,60,21,93c-11,39,-59,54,-98,54c-72,0,-129,-58,-129,-130c0,-72,57,-130,129,-130c39,0,86,17,98,54c0,12,-9,21,-21,21z" fill="#fa0a03" stroke="none" stroke-width="51.42857142857143" transform="scale(0.019444444444444445, 0.019444444444444445) translate(32554.285714285714, 925.7142857142857) translate(3.81908, 158)"/><rect x="609" y="10" width="40.28277777777778" height="16" rx="0" ry="0" fill="#000" opacity="0" stroke="none" stroke-width="1"/><circle cx="609" cy="174.5" r="10" fill="none" stroke="#dcdee2" stroke-width="5" stroke-opacity="0.6" opacity="0"/></g><g data-event_id="achievement_91478" class="timeline_event"><path d="M 549 10 L 549 26 L 569 26 L 562 18 L 569 10 Z" stroke-opacity="0" fill="url(#linear_0jppji39grpb928z)" class="event-marker" data-color="#f00" stroke-width="1" stroke="#000000"/><path d="M141,-176c-39,12,-55,-44,-19,-44l44,0c14,-19,21,-63,54,-51c21,14,5,38,-5,51l77,0c14,-19,21,-63,54,-51c21,14,5,38,-5,51c38,-11,51,44,15,44l-39,0l-37,64c23,-2,44,1,44,22c0,29,-39,21,-68,22c-15,18,-22,63,-54,51c-21,-13,-5,-37,4,-51l-76,0c-15,18,-22,63,-54,51c-21,-13,-5,-37,4,-51c-19,2,-33,-5,-33,-22c-1,-26,31,-22,57,-22zM191,-176l-37,64l76,0l37,-64l-76,0zM462.7,-71c38,16,148,27,148,-19c0,-24,-30,-32,-67,-32c-64,0,-110,-25,-110,-76c0,-77,127,-92,194,-59c12,5,17,16,13,27c-5,14,-16,16,-27,13c-31,-16,-136,-25,-137,19c0,24,30,32,67,32c64,0,110,25,110,76c0,80,-134,92,-205,60c-11,-4,-17,-17,-13,-28c5,-12,16,-17,27,-13zM829.4,-36l0,-194c-38,-5,-108,17,-108,-22c0,-12,10,-22,22,-22l216,0c12,0,21,10,21,22c0,39,-71,16,-108,22l0,194c0,12,-9,22,-21,22c-12,0,-22,-10,-22,-22zM1069.1,-36c37,-81,86,-150,127,-227c7,-14,31,-14,38,0l125,217c6,15,-4,34,-19,32c-26,-3,-30,-37,-44,-54l-162,0c-14,17,-18,48,-43,54c-12,0,-22,-10,-22,-22zM1215.1,-209l-56,97l112,0zM1431.8,-36l0,-216c0,-12,10,-22,22,-22l110,0c46,1,83,39,83,85c0,37,-24,68,-56,80l58,58c14,12,4,38,-15,37c-6,0,-11,-3,-15,-7l-84,-83l-59,0c-4,34,13,88,-22,90c-12,0,-22,-10,-22,-22zM1602.8,-189c0,-55,-74,-39,-127,-41l0,82c53,-2,127,14,127,-41zM1826.5,-36l0,-194c-38,-5,-108,17,-108,-22c0,-12,10,-22,22,-22l216,0c12,0,21,10,21,22c0,39,-71,16,-108,22l0,194c0,12,-9,22,-21,22c-12,0,-22,-10,-22,-22zM2243.2,-252c0,-12,9,-22,21,-22c12,0,22,10,22,22l0,117c0,67,-54,121,-121,121c-67,0,-120,-54,-120,-121l0,-117c0,-12,9,-22,21,-22c12,0,22,10,22,22l0,119c1,42,35,75,77,75c43,0,78,-34,78,-77l0,-117zM2366.9,-36l0,-216c0,-12,10,-22,22,-22l110,0c46,1,83,39,83,85c0,47,-38,85,-85,85l-86,0c-4,34,13,88,-22,90c-12,0,-22,-10,-22,-22zM2537.9,-189c0,-55,-74,-39,-127,-41l0,82c53,-2,127,14,127,-41zM2752.6,-36l0,-194c-38,-5,-108,17,-108,-22c0,-12,10,-22,22,-22l216,0c12,0,21,10,21,22c0,39,-71,16,-108,22l0,194c0,12,-9,22,-21,22c-12,0,-22,-10,-22,-22zM2974.2999999999997,-36l0,-216c0,-12,10,-22,22,-22l180,0c12,0,22,10,22,22c0,12,-10,22,-22,22l-158,0l0,64l122,0c12,0,22,10,22,22c0,12,-10,22,-22,22l-122,0l0,64l158,0c12,0,22,10,22,22c0,12,-10,22,-22,22l-180,0c-12,0,-22,-10,-22,-22zM3505.9999999999995,-68c-11,39,-59,54,-98,54c-72,0,-129,-58,-129,-130c0,-72,57,-130,129,-130c39,0,86,17,98,54c0,12,-9,21,-21,21c-27,-7,-44,-31,-77,-31c-48,0,-86,38,-86,86c0,48,38,86,86,86c33,0,50,-23,77,-31c12,0,21,9,21,21zM3579.6999999999994,-36l0,-216c0,-12,10,-22,22,-22c39,0,16,71,22,108l154,0c5,-38,-17,-108,22,-108c12,0,22,10,22,22l0,216c0,12,-10,22,-22,22c-39,0,-16,-71,-22,-108l-154,0c-5,38,17,108,-22,108c-12,0,-22,-10,-22,-22zM3928.399999999999,-71c38,16,148,27,148,-19c0,-24,-30,-32,-67,-32c-64,0,-110,-25,-110,-76c0,-77,127,-92,194,-59c12,5,17,16,13,27c-5,14,-16,16,-27,13c-31,-16,-136,-25,-137,19c0,24,30,32,67,32c64,0,110,25,110,76c0,80,-134,92,-205,60c-11,-4,-17,-17,-13,-28c5,-12,16,-17,27,-13zM4197.099999999999,-36l0,-216c0,-12,10,-22,22,-22c12,0,22,10,22,22l0,216c0,12,-10,22,-22,22c-12,0,-22,-10,-22,-22zM4325.799999999999,-36l0,-216c6,-39,74,-22,114,-22c71,0,128,59,128,130c0,72,-58,130,-130,130c-39,0,-112,18,-112,-22zM4523.799999999999,-144c0,-48,-38,-86,-86,-86l-68,0l0,172l68,0c48,0,86,-38,86,-86zM4641.499999999999,-36l0,-216c0,-12,10,-22,22,-22l180,0c12,0,22,10,22,22c0,12,-10,22,-22,22l-158,0l0,64l122,0c12,0,22,10,22,22c0,12,-10,22,-22,22l-122,0l0,64l158,0c12,0,22,10,22,22c0,12,-10,22,-22,22l-180,0c-12,0,-22,-10,-22,-22z" fill="#fa0a03" stroke="none" stroke-width="51.42857142857143" transform="scale(0.019444444444444445, 0.019444444444444445) translate(23103.071428571428, 925.7142857142857) translate(3.81908, 158)"/><rect x="449.2263888888889" y="10" width="119.77361111111111" height="16" rx="0" ry="0" fill="#000" opacity="0" stroke="none" stroke-width="1"/><circle cx="549" cy="174.5" r="10" fill="none" stroke="#dcdee2" stroke-width="5" stroke-opacity="0.6" opacity="0"/></g><g data-event_id="achievement_91476" class="timeline_event"><path d="M 329 10 L 329 26 L 349 26 L 342 18 L 349 10 Z" stroke-opacity="0" fill="url(#linear_0jppji39grpb928z)" class="event-marker" data-color="#f00" stroke-width="1" stroke="#000000"/><path d="M162,-36l0,-194c-38,-5,-108,17,-108,-22c0,-12,10,-22,22,-22l216,0c12,0,21,10,21,22c0,39,-71,16,-108,22l0,194c0,12,-9,22,-21,22c-12,0,-22,-10,-22,-22zM383.7,-36l0,-216c0,-12,10,-22,22,-22c12,0,22,10,22,22l0,216c0,12,-10,22,-22,22c-12,0,-22,-10,-22,-22zM764.4,-36l0,-164l-89,89c-7,9,-22,8,-30,0l-89,-89l0,164c0,12,-10,22,-22,22c-12,0,-22,-10,-22,-22l0,-216c-1,-19,24,-28,37,-15l111,110l111,-110c12,-14,38,-4,37,15l0,216c0,12,-10,22,-22,22c-12,0,-22,-10,-22,-22zM893.0999999999999,-36l0,-216c0,-12,10,-22,22,-22l180,0c12,0,22,10,22,22c0,12,-10,22,-22,22l-158,0l0,64l122,0c12,0,22,10,22,22c0,12,-10,22,-22,22l-122,0l0,64l158,0c12,0,22,10,22,22c0,12,-10,22,-22,22l-180,0c-12,0,-22,-10,-22,-22zM1193.8,-36l0,-216c0,-12,10,-22,22,-22c12,0,22,10,22,22l0,194l158,0c12,0,22,10,22,22c0,12,-10,22,-22,22l-180,0c-12,0,-22,-10,-22,-22zM1487.5,-36l0,-216c0,-12,10,-22,22,-22c12,0,22,10,22,22l0,216c0,12,-10,22,-22,22c-12,0,-22,-10,-22,-22zM1616.2,-36l0,-216c-1,-19,24,-28,37,-15l179,179l0,-164c0,-12,10,-22,22,-22c12,0,22,10,22,22l0,216c1,19,-24,28,-37,15l-179,-179l0,164c0,12,-10,22,-22,22c-12,0,-22,-10,-22,-22zM1960.9,-36l0,-216c0,-12,10,-22,22,-22l180,0c12,0,22,10,22,22c0,12,-10,22,-22,22l-158,0l0,64l122,0c12,0,22,10,22,22c0,12,-10,22,-22,22l-122,0l0,64l158,0c12,0,22,10,22,22c0,12,-10,22,-22,22l-180,0c-12,0,-22,-10,-22,-22zM2487.2999999999997,-122c-23,0,-45,-1,-45,-22c0,-20,20,-22,42,-22c36,0,64,-8,64,-32c0,-44,-105,-34,-136,-19c-10,5,-25,0,-27,-13c-7,-40,63,-41,97,-44c94,-8,145,80,81,130c64,49,13,130,-81,130c-27,0,-61,-8,-84,-17c-12,-5,-17,-15,-13,-27c4,-13,16,-18,27,-13c32,15,135,25,136,-19c0,-23,-26,-32,-61,-32zM2668.9999999999995,-36c0,-12,10,-22,22,-22c12,0,22,10,22,22c0,12,-10,22,-22,22c-12,0,-22,-10,-22,-22zM2830.6999999999994,-144c0,48,38,86,86,86c48,0,87,-38,87,-86c0,-48,-39,-86,-87,-86c-48,0,-86,38,-86,86zM2787.6999999999994,-144c0,-72,57,-130,129,-130c72,0,130,58,130,130c0,72,-58,130,-130,130c-72,0,-129,-58,-129,-130z" fill="#fa0a03" stroke="none" stroke-width="51.42857142857143" transform="scale(0.019444444444444445, 0.019444444444444445) translate(18154.285714285714, 925.7142857142857) translate(3.81908, 158)"/><rect x="329" y="10" width="82.1136111111111" height="16" rx="0" ry="0" fill="#000" opacity="0" stroke="none" stroke-width="1"/><circle cx="329" cy="174.5" r="10" fill="none" stroke="#dcdee2" stroke-width="5" stroke-opacity="0.6" opacity="0"/></g><g data-event_id="achievement_91479" class="timeline_event" transform="translate(0, 60)"><path d="M 279 10 L 279 26 L 299 26 L 292 18 L 299 10 Z" stroke-opacity="0" fill="url(#linear_0jppji39grpb928z)" class="event-marker" data-color="#f00" stroke-width="1" stroke="#000000"/><path d="M68,-36l0,-216c0,-12,10,-22,22,-22l110,0c46,1,83,39,83,85c0,47,-38,85,-85,85l-86,0c-4,34,13,88,-22,90c-12,0,-22,-10,-22,-22zM239,-189c0,-55,-74,-39,-127,-41l0,82c53,-2,127,14,127,-41zM392.7,-144c0,48,38,86,86,86c48,0,87,-38,87,-86c0,-48,-39,-86,-87,-86c-48,0,-86,38,-86,86zM349.7,-144c0,-72,57,-130,129,-130c72,0,130,58,130,130c0,72,-58,130,-130,130c-72,0,-129,-58,-129,-130zM696.4,-36l0,-216c0,-12,10,-22,22,-22c12,0,22,10,22,22l0,216c0,12,-10,22,-22,22c-12,0,-22,-10,-22,-22zM847.0999999999999,-71c38,16,148,27,148,-19c0,-24,-30,-32,-67,-32c-64,0,-110,-25,-110,-76c0,-77,127,-92,194,-59c12,5,17,16,13,27c-5,14,-16,16,-27,13c-31,-16,-136,-25,-137,19c0,24,30,32,67,32c64,0,110,25,110,76c0,80,-134,92,-205,60c-11,-4,-17,-17,-13,-28c5,-12,16,-17,27,-13zM1148.8,-144c0,48,38,86,86,86c48,0,87,-38,87,-86c0,-48,-39,-86,-87,-86c-48,0,-86,38,-86,86zM1105.8,-144c0,-72,57,-130,129,-130c72,0,130,58,130,130c0,72,-58,130,-130,130c-72,0,-129,-58,-129,-130zM1438.5,-36l0,-216c-1,-19,24,-28,37,-15l179,179l0,-164c0,-12,10,-22,22,-22c12,0,22,10,22,22l0,216c1,19,-24,28,-37,15l-179,-179l0,164c0,12,-10,22,-22,22c-12,0,-22,-10,-22,-22z" fill="#fa0a03" stroke="none" stroke-width="51.42857142857143" transform="scale(0.019444444444444445, 0.019444444444444445) translate(12376.357142857143, 925.7142857142857) translate(3.81908, 158)"/><rect x="240.6513888888889" y="10" width="58.3486111111111" height="16" rx="0" ry="0" fill="#000" opacity="0" stroke="none" stroke-width="1"/><circle cx="279" cy="174.5" r="10" fill="none" stroke="#dcdee2" stroke-width="5" stroke-opacity="0.6" opacity="0"/></g><g data-event_id="achievement_91477" class="timeline_event"><path d="M 209 10 L 209 26 L 229 26 L 222 18 L 229 10 Z" stroke-opacity="0" fill="url(#linear_0jppji39grpb928z)" class="event-marker" data-color="#f00" stroke-width="1" stroke="#000000"/><path d="M162,-36l0,-194c-38,-5,-108,17,-108,-22c0,-12,10,-22,22,-22l216,0c12,0,21,10,21,22c0,39,-71,16,-108,22l0,194c0,12,-9,22,-21,22c-12,0,-22,-10,-22,-22zM383.7,-36l0,-216c0,-12,10,-22,22,-22c12,0,22,10,22,22l0,216c0,12,-10,22,-22,22c-12,0,-22,-10,-22,-22zM764.4,-36l0,-164l-89,89c-7,9,-22,8,-30,0l-89,-89l0,164c0,12,-10,22,-22,22c-12,0,-22,-10,-22,-22l0,-216c-1,-19,24,-28,37,-15l111,110l111,-110c12,-14,38,-4,37,15l0,216c0,12,-10,22,-22,22c-12,0,-22,-10,-22,-22zM893.0999999999999,-36l0,-216c0,-12,10,-22,22,-22l180,0c12,0,22,10,22,22c0,12,-10,22,-22,22l-158,0l0,64l122,0c12,0,22,10,22,22c0,12,-10,22,-22,22l-122,0l0,64l158,0c12,0,22,10,22,22c0,12,-10,22,-22,22l-180,0c-12,0,-22,-10,-22,-22zM1193.8,-36l0,-216c0,-12,10,-22,22,-22c12,0,22,10,22,22l0,194l158,0c12,0,22,10,22,22c0,12,-10,22,-22,22l-180,0c-12,0,-22,-10,-22,-22zM1487.5,-36l0,-216c0,-12,10,-22,22,-22c12,0,22,10,22,22l0,216c0,12,-10,22,-22,22c-12,0,-22,-10,-22,-22zM1616.2,-36l0,-216c-1,-19,24,-28,37,-15l179,179l0,-164c0,-12,10,-22,22,-22c12,0,22,10,22,22l0,216c1,19,-24,28,-37,15l-179,-179l0,164c0,12,-10,22,-22,22c-12,0,-22,-10,-22,-22zM1960.9,-36l0,-216c0,-12,10,-22,22,-22l180,0c12,0,22,10,22,22c0,12,-10,22,-22,22l-158,0l0,64l122,0c12,0,22,10,22,22c0,12,-10,22,-22,22l-122,0l0,64l158,0c12,0,22,10,22,22c0,12,-10,22,-22,22l-180,0c-12,0,-22,-10,-22,-22zM2596.2999999999997,-14l-191,0c-12,0,-22,-10,-22,-22c0,-72,74,-106,129,-120c27,-7,54,-14,54,-38c0,-50,-106,-40,-141,-14c-23,17,-45,-20,-23,-36c65,-46,210,-39,208,50c-1,42,-25,62,-81,77c-54,15,-85,36,-97,59l164,0c12,0,21,10,21,22c0,12,-9,22,-21,22zM2694.9999999999995,-36c0,-12,10,-22,22,-22c12,0,22,10,22,22c0,12,-10,22,-22,22c-12,0,-22,-10,-22,-22zM2856.6999999999994,-144c0,48,38,86,86,86c48,0,87,-38,87,-86c0,-48,-39,-86,-87,-86c-48,0,-86,38,-86,86zM2813.6999999999994,-144c0,-72,57,-130,129,-130c72,0,130,58,130,130c0,72,-58,130,-130,130c-72,0,-129,-58,-129,-130z" fill="#fa0a03" stroke="none" stroke-width="51.42857142857143" transform="scale(0.019444444444444445, 0.019444444444444445) translate(7413.157142857144, 925.7142857142857) translate(3.81908, 158)"/><rect x="144.14472222222224" y="10" width="84.85527777777776" height="16" rx="0" ry="0" fill="#000" opacity="0" stroke="none" stroke-width="1"/><circle cx="209" cy="174.5" r="10" fill="none" stroke="#dcdee2" stroke-width="5" stroke-opacity="0.6" opacity="0"/></g><g data-event_id="achievement_91474" class="timeline_event"><path d="M 159 35 L 159 51 L 179 51 L 172 43 L 179 35 Z" stroke-opacity="0" fill="url(#linear_0jppji39grpb928z)" class="event-marker" data-color="#f00" stroke-width="1" stroke="#000000"/><path d="M162,-36l0,-194c-38,-5,-108,17,-108,-22c0,-12,10,-22,22,-22l216,0c12,0,21,10,21,22c0,39,-71,16,-108,22l0,194c0,12,-9,22,-21,22c-12,0,-22,-10,-22,-22zM383.7,-36l0,-216c0,-12,10,-22,22,-22c12,0,22,10,22,22l0,216c0,12,-10,22,-22,22c-12,0,-22,-10,-22,-22zM764.4,-36l0,-164l-89,89c-7,9,-22,8,-30,0l-89,-89l0,164c0,12,-10,22,-22,22c-12,0,-22,-10,-22,-22l0,-216c-1,-19,24,-28,37,-15l111,110l111,-110c12,-14,38,-4,37,15l0,216c0,12,-10,22,-22,22c-12,0,-22,-10,-22,-22zM893.0999999999999,-36l0,-216c0,-12,10,-22,22,-22l180,0c12,0,22,10,22,22c0,12,-10,22,-22,22l-158,0l0,64l122,0c12,0,22,10,22,22c0,12,-10,22,-22,22l-122,0l0,64l158,0c12,0,22,10,22,22c0,12,-10,22,-22,22l-180,0c-12,0,-22,-10,-22,-22zM1193.8,-36l0,-216c0,-12,10,-22,22,-22c12,0,22,10,22,22l0,194l158,0c12,0,22,10,22,22c0,12,-10,22,-22,22l-180,0c-12,0,-22,-10,-22,-22zM1487.5,-36l0,-216c0,-12,10,-22,22,-22c12,0,22,10,22,22l0,216c0,12,-10,22,-22,22c-12,0,-22,-10,-22,-22zM1616.2,-36l0,-216c-1,-19,24,-28,37,-15l179,179l0,-164c0,-12,10,-22,22,-22c12,0,22,10,22,22l0,216c1,19,-24,28,-37,15l-179,-179l0,164c0,12,-10,22,-22,22c-12,0,-22,-10,-22,-22zM1960.9,-36l0,-216c0,-12,10,-22,22,-22l180,0c12,0,22,10,22,22c0,12,-10,22,-22,22l-158,0l0,64l122,0c12,0,22,10,22,22c0,12,-10,22,-22,22l-122,0l0,64l158,0c12,0,22,10,22,22c0,12,-10,22,-22,22l-180,0c-12,0,-22,-10,-22,-22zM2452.2999999999997,-230c-25,1,-55,3,-54,-22c0,-32,45,-20,75,-22c12,0,22,10,22,22l0,194c30,1,71,-9,72,22c0,12,-10,22,-22,22l-144,0c-12,0,-21,-10,-21,-22c0,-31,43,-20,72,-22l0,-172zM2640.9999999999995,-36c0,-12,10,-22,22,-22c12,0,22,10,22,22c0,12,-10,22,-22,22c-12,0,-22,-10,-22,-22zM2802.6999999999994,-144c0,48,38,86,86,86c48,0,87,-38,87,-86c0,-48,-39,-86,-87,-86c-48,0,-86,38,-86,86zM2759.6999999999994,-144c0,-72,57,-130,129,-130c72,0,130,58,130,130c0,72,-58,130,-130,130c-72,0,-129,-58,-129,-130z" fill="#fa0a03" stroke="none" stroke-width="51.42857142857143" transform="scale(0.019444444444444445, 0.019444444444444445) translate(9411.42857142857, 2211.4285714285716) translate(3.81908, 158)"/><rect x="159" y="35" width="81.56916666666666" height="16" rx="0" ry="0" fill="#000" opacity="0" stroke="none" stroke-width="1"/><circle cx="159" cy="174.5" r="10" fill="none" stroke="#dcdee2" stroke-width="5" stroke-opacity="0.6" opacity="0"/></g><rect x="15" y="171" width="815" height="3" rx="0" ry="0" fill="#ffffff" fill-opacity="0.25" stroke="none" stroke-width="1"/><rect x="15" y="194" width="815" height="3" rx="0" ry="0" fill="#ffffff" fill-opacity="0.25" stroke="none" stroke-width="1"/><g><circle cx="149.33333333333326" cy="174" r="3.2" fill="url(#linear_fkvad5vm2x5yiudi)" stroke="none" stroke-width="1"/><circle cx="766" cy="174" r="3.2" fill="url(#linear_fkvad5vm2x5yiudi)" stroke="none" stroke-width="1"/></g><g><circle cx="749.3333333333334" cy="174" r="3.2" fill="url(#linear_uum7if4qbg5pnwmi)" stroke="none" stroke-width="1"/></g><rect x="748.5" y="10" width="1" height="22" rx="0" ry="0" stroke="none" fill="#f00" stroke-width="1"/><rect x="748.5" y="54" width="1" height="121" rx="0" ry="0" stroke="none" fill="#f00" stroke-width="1"/><circle cx="749" cy="174.5" r="3" fill="#fff" stroke="#f00" stroke-width="2"/><rect x="748.5" y="35" width="1" height="140" rx="0" ry="0" stroke="none" fill="#f00" stroke-width="1"/><circle cx="749" cy="174.5" r="3" fill="#fff" stroke="#f00" stroke-width="2"/><rect x="608.5" y="80" width="1" height="90" rx="0" ry="0" stroke="none" fill="#f00" stroke-width="1"/><rect x="608.5" y="113.31736202331061" width="1" height="61.68263797668939" rx="0" ry="0" stroke="none" fill="#f00" stroke-width="1"/><circle cx="609" cy="174.5" r="3" fill="#fff" stroke="#f00" stroke-width="2"/><rect x="548.5" y="10" width="1" height="165" rx="0" ry="0" stroke="none" fill="#f00" stroke-width="1"/><circle cx="549" cy="174.5" r="3" fill="#fff" stroke="#f00" stroke-width="2"/><rect x="328.5" y="10" width="1" height="165" rx="0" ry="0" stroke="none" fill="#f00" stroke-width="1"/><circle cx="329" cy="174.5" r="3" fill="#fff" stroke="#f00" stroke-width="2"/><rect x="278.5" y="70" width="1" height="105" rx="0" ry="0" stroke="none" fill="#f00" stroke-width="1"/><circle cx="279" cy="174.5" r="3" fill="#fff" stroke="#f00" stroke-width="2"/><rect x="208.5" y="10" width="1" height="27.47222222222222" rx="0" ry="0" stroke="none" fill="#f00" stroke-width="1"/><rect x="208.5" y="48.52777777777778" width="1" height="126.47222222222223" rx="0" ry="0" stroke="none" fill="#f00" stroke-width="1"/><circle cx="209" cy="174.5" r="3" fill="#fff" stroke="#f00" stroke-width="2"/><rect x="158.5" y="35" width="1" height="140" rx="0" ry="0" stroke="none" fill="#f00" stroke-width="1"/><circle cx="159" cy="174.5" r="3" fill="#fff" stroke="#f00" stroke-width="2"/></g></svg>
